<svg xmlns="http://www.w3.org/2000/svg" xmlns:xlink="http://www.w3.org/1999/xlink" xmlns:serif="http://www.serif.com/" width="100%" height="100%" viewBox="0 0 449 233" xml:space="preserve" style="fill-rule:evenodd;clip-rule:evenodd;stroke-linejoin:round;stroke-miterlimit:2;">
    <g transform="matrix(1.35506,0,0,1.54724,-266.312,-299.43)">
        <g transform="matrix(58.3333,0,0,58.3333,298.086,282.235)">
            <path d="M0.395,-0.718C0.462,-0.718 0.522,-0.703 0.577,-0.672C0.631,-0.641 0.674,-0.598 0.705,-0.543C0.736,-0.488 0.752,-0.425 0.752,-0.356C0.752,-0.287 0.736,-0.224 0.705,-0.169C0.673,-0.114 0.63,-0.071 0.576,-0.04C0.521,-0.009 0.461,0.007 0.395,0.007C0.329,0.007 0.269,-0.009 0.215,-0.04C0.16,-0.071 0.117,-0.114 0.086,-0.169C0.054,-0.224 0.038,-0.287 0.038,-0.356C0.038,-0.425 0.054,-0.488 0.086,-0.543C0.117,-0.598 0.16,-0.641 0.215,-0.672C0.269,-0.703 0.329,-0.718 0.395,-0.718ZM0.395,-0.559C0.339,-0.559 0.295,-0.541 0.262,-0.505C0.229,-0.468 0.212,-0.419 0.212,-0.356C0.212,-0.294 0.229,-0.245 0.262,-0.208C0.295,-0.171 0.339,-0.153 0.395,-0.153C0.45,-0.153 0.495,-0.171 0.528,-0.208C0.561,-0.245 0.578,-0.294 0.578,-0.356C0.578,-0.418 0.562,-0.467 0.529,-0.504C0.496,-0.541 0.451,-0.559 0.395,-0.559Z" style="fill:rgb(15,30,66);fill-rule:nonzero;"></path>
        </g>
        <g transform="matrix(58.3333,0,0,58.3333,344.111,282.235)">
            <path d="M0.567,-0.199C0.567,-0.162 0.558,-0.127 0.539,-0.096C0.52,-0.065 0.492,-0.04 0.455,-0.021C0.418,-0.002 0.373,0.007 0.32,0.007C0.241,0.007 0.175,-0.012 0.124,-0.051C0.073,-0.09 0.045,-0.144 0.04,-0.213L0.222,-0.213C0.225,-0.186 0.234,-0.165 0.251,-0.15C0.267,-0.135 0.288,-0.127 0.313,-0.127C0.335,-0.127 0.352,-0.133 0.365,-0.145C0.378,-0.157 0.384,-0.173 0.384,-0.193C0.384,-0.211 0.378,-0.226 0.367,-0.238C0.355,-0.25 0.34,-0.26 0.323,-0.268C0.306,-0.275 0.282,-0.284 0.251,-0.295C0.206,-0.31 0.17,-0.325 0.142,-0.34C0.113,-0.354 0.089,-0.375 0.069,-0.404C0.048,-0.432 0.038,-0.469 0.038,-0.514C0.038,-0.556 0.049,-0.592 0.07,-0.623C0.091,-0.654 0.121,-0.677 0.159,-0.694C0.196,-0.71 0.239,-0.718 0.288,-0.718C0.367,-0.718 0.429,-0.699 0.476,-0.662C0.522,-0.625 0.548,-0.573 0.554,-0.508L0.369,-0.508C0.366,-0.531 0.357,-0.55 0.344,-0.564C0.33,-0.577 0.311,-0.584 0.288,-0.584C0.268,-0.584 0.252,-0.579 0.24,-0.568C0.227,-0.557 0.221,-0.542 0.221,-0.521C0.221,-0.504 0.227,-0.49 0.238,-0.479C0.249,-0.467 0.262,-0.457 0.279,-0.45C0.296,-0.443 0.32,-0.433 0.351,-0.422C0.396,-0.407 0.433,-0.392 0.462,-0.377C0.491,-0.362 0.515,-0.34 0.536,-0.311C0.557,-0.282 0.567,-0.245 0.567,-0.199Z" style="fill:rgb(15,30,66);fill-rule:nonzero;"></path>
        </g>
        <g transform="matrix(58.3333,0,0,58.3333,379.286,282.235)">
            <rect x="0.059" y="-0.707" width="0.171" height="0.707" style="fill:rgb(15,30,66);fill-rule:nonzero;"></rect>
        </g>
        <g transform="matrix(58.3333,0,0,58.3333,396.144,282.235)">
            <path d="M0.23,-0.571L0.23,-0.423L0.469,-0.423L0.469,-0.294L0.23,-0.294L0.23,-0.137L0.499,-0.137L0.499,-0L0.059,-0L0.059,-0.707L0.499,-0.707L0.499,-0.571L0.23,-0.571Z" style="fill:rgb(15,30,66);fill-rule:nonzero;"></path>
        </g>
        <g transform="matrix(58.3333,0,0,58.3333,427.469,282.235)">
            <path d="M0.695,-0.355C0.695,-0.286 0.68,-0.224 0.651,-0.171C0.621,-0.117 0.578,-0.075 0.523,-0.045C0.467,-0.015 0.401,-0 0.326,-0L0.059,-0L0.059,-0.707L0.326,-0.707C0.402,-0.707 0.468,-0.692 0.523,-0.663C0.578,-0.634 0.621,-0.592 0.651,-0.539C0.68,-0.486 0.695,-0.424 0.695,-0.355ZM0.311,-0.153C0.378,-0.153 0.43,-0.171 0.467,-0.206C0.503,-0.241 0.522,-0.291 0.522,-0.355C0.522,-0.419 0.503,-0.469 0.467,-0.504C0.43,-0.539 0.378,-0.557 0.311,-0.557L0.23,-0.557L0.23,-0.153L0.311,-0.153Z" style="fill:rgb(15,30,66);fill-rule:nonzero;"></path>
        </g>
        <g transform="matrix(58.3333,0,0,58.3333,470.227,282.235)">
            <path d="M0.23,-0.131L0.458,-0.131L0.458,-0L0.059,-0L0.059,-0.707L0.23,-0.707L0.23,-0.131Z" style="fill:rgb(15,30,66);fill-rule:nonzero;"></path>
        </g>
        <g transform="matrix(58.3333,0,0,58.3333,498.111,282.235)">
            <path d="M0.23,-0.571L0.23,-0.423L0.469,-0.423L0.469,-0.294L0.23,-0.294L0.23,-0.137L0.499,-0.137L0.499,-0L0.059,-0L0.059,-0.707L0.499,-0.707L0.499,-0.571L0.23,-0.571Z" style="fill:rgb(15,30,66);fill-rule:nonzero;"></path>
        </g>
    </g>
    <g transform="matrix(0.406957,0,0,0.406957,-173.114,-242.714)">
        <path d="M460.803,935.236L460.803,777.887C460.803,777.887 587.729,650.961 587.729,650.961C587.729,650.961 707.733,770.965 707.733,770.965L707.733,935.236L743.149,935.236L743.149,756.295L587.729,600.875L425.387,763.217L425.387,935.236L460.803,935.236Z" style="fill:url(#_Linear1);"></path>
    </g>
    <g transform="matrix(0.406957,0,0,0.406957,-173.114,-242.714)">
        <path d="M910.344,756.761L749.996,596.413L641.588,704.821L666.632,729.864L749.996,646.5L860.257,756.761L910.344,756.761Z" style="fill:url(#_Linear2);"></path>
    </g>
    <g transform="matrix(0.406957,0,0,0.406957,-160.941,-252.485)">
        <rect x="511.567" y="794.561" width="43.05" height="43.05" style="fill:rgb(15,30,66);"></rect>
    </g>
    <g transform="matrix(0.406957,0,0,0.406957,-160.941,-232.456)">
        <rect x="511.567" y="794.561" width="43.05" height="43.05" style="fill:rgb(15,30,66);"></rect>
    </g>
    <g transform="matrix(0.406957,0,0,0.406957,-140.928,-252.485)">
        <rect x="511.567" y="794.561" width="43.05" height="43.05" style="fill:rgb(15,30,66);"></rect>
    </g>
    <g transform="matrix(0.406957,0,0,0.406957,-140.928,-232.456)">
        <rect x="511.567" y="794.561" width="43.05" height="43.05" style="fill:rgb(15,30,66);"></rect>
    </g>
    <g transform="matrix(1.34558,0,0,1.34558,-884.562,-682.741)">
        <g transform="matrix(0.875792,0,0,1,81.073,0)">
            <path d="M729.798,616.675L729.798,680.034L714.364,680.034L714.364,640.412L700.645,680.034L687.288,680.034L673.478,640.322L673.478,680.034L658.045,680.034L658.045,616.675L676.908,616.675L694.147,660.81L711.025,616.675L729.798,616.675Z" style="fill:url(#_Linear3);fill-rule:nonzero;"></path>
        </g>
        <g transform="matrix(0.875792,0,0,1,81.073,0)">
            <path d="M779.98,668.391L756.062,668.391L752.091,680.034L735.845,680.034L759.221,616.675L777.002,616.675L800.378,680.034L783.951,680.034L779.98,668.391ZM776.009,656.658L768.066,633.192L760.033,656.658L776.009,656.658Z" style="fill:url(#_Linear4);fill-rule:nonzero;"></path>
        </g>
        <g transform="matrix(0.875792,0,0,1,81.073,0)">
            <path d="M863.737,647.994C863.737,654.251 862.398,659.802 859.721,664.646C857.043,669.49 853.192,673.265 848.168,675.973C843.144,678.681 837.232,680.034 830.433,680.034L806.335,680.034L806.335,616.224L830.433,616.224C837.292,616.224 843.219,617.547 848.213,620.195C853.207,622.842 857.043,626.573 859.721,631.387C862.398,636.2 863.737,641.736 863.737,647.994ZM829.079,666.225C835.096,666.225 839.774,664.631 843.114,661.442C846.453,658.253 848.123,653.77 848.123,647.994C848.123,642.217 846.453,637.735 843.114,634.546C839.774,631.357 835.096,629.762 829.079,629.762L821.768,629.762L821.768,666.225L829.079,666.225Z" style="fill:url(#_Linear5);fill-rule:nonzero;"></path>
        </g>
        <g transform="matrix(0.875792,0,0,1,81.073,0)">
            <path d="M887.926,628.498L887.926,641.856L909.497,641.856L909.497,653.499L887.926,653.499L887.926,667.669L912.204,667.669L912.204,680.034L872.492,680.034L872.492,616.224L912.204,616.224L912.204,628.498L887.926,628.498Z" style="fill:url(#_Linear6);fill-rule:nonzero;"></path>
        </g>
        <g transform="matrix(0.875792,0,0,1,81.073,0)">
            <path d="M953.722,680.034L939.913,655.936L936.393,655.936L936.393,680.034L920.959,680.034L920.959,616.224L947.314,616.224C952.368,616.224 956.64,617.096 960.13,618.841C963.62,620.586 966.237,622.978 967.982,626.016C969.727,629.055 970.6,632.53 970.6,636.441C970.6,641.074 969.321,645.015 966.764,648.264C964.207,651.514 960.491,653.74 955.617,654.943L970.78,680.034L953.722,680.034ZM936.393,645.376L945.96,645.376C949.029,645.376 951.285,644.699 952.729,643.346C954.173,641.992 954.895,639.991 954.895,637.344C954.895,634.816 954.158,632.831 952.684,631.387C951.21,629.943 948.968,629.221 945.96,629.221L936.393,629.221L936.393,645.376Z" style="fill:url(#_Linear7);fill-rule:nonzero;"></path>
        </g>
        <g transform="matrix(0.875792,0,0,1,81.073,0)">
            <path d="M1017.89,668.391L993.976,668.391L990.005,680.034L973.759,680.034L997.135,616.675L1014.92,616.675L1038.29,680.034L1021.87,680.034L1017.89,668.391ZM1013.92,656.658L1005.98,633.192L997.947,656.658L1013.92,656.658Z" style="fill:url(#_Linear8);fill-rule:nonzero;"></path>
        </g>
    </g>
    <defs>
        <linearGradient id="_Linear1" x1="0" y1="0" x2="1" y2="0" gradientUnits="userSpaceOnUse" gradientTransform="matrix(484.957,0,0,338.823,425.387,765.825)"><stop offset="0" style="stop-color:rgb(255,173,1);stop-opacity:1"></stop><stop offset="1" style="stop-color:rgb(254,203,0);stop-opacity:1"></stop></linearGradient>
        <linearGradient id="_Linear2" x1="0" y1="0" x2="1" y2="0" gradientUnits="userSpaceOnUse" gradientTransform="matrix(484.957,0,0,338.823,425.387,765.825)"><stop offset="0" style="stop-color:rgb(255,173,1);stop-opacity:1"></stop><stop offset="1" style="stop-color:rgb(254,203,0);stop-opacity:1"></stop></linearGradient>
        <linearGradient id="_Linear3" x1="0" y1="0" x2="1" y2="0" gradientUnits="userSpaceOnUse" gradientTransform="matrix(372.636,0,0,326.352,658.045,654.292)"><stop offset="0" style="stop-color:rgb(255,173,1);stop-opacity:1"></stop><stop offset="1" style="stop-color:rgb(254,202,0);stop-opacity:1"></stop></linearGradient>
        <linearGradient id="_Linear4" x1="0" y1="0" x2="1" y2="0" gradientUnits="userSpaceOnUse" gradientTransform="matrix(372.636,0,0,326.352,658.045,654.292)"><stop offset="0" style="stop-color:rgb(255,173,1);stop-opacity:1"></stop><stop offset="1" style="stop-color:rgb(254,202,0);stop-opacity:1"></stop></linearGradient>
        <linearGradient id="_Linear5" x1="0" y1="0" x2="1" y2="0" gradientUnits="userSpaceOnUse" gradientTransform="matrix(372.636,0,0,326.352,658.045,654.292)"><stop offset="0" style="stop-color:rgb(255,173,1);stop-opacity:1"></stop><stop offset="1" style="stop-color:rgb(254,202,0);stop-opacity:1"></stop></linearGradient>
        <linearGradient id="_Linear6" x1="0" y1="0" x2="1" y2="0" gradientUnits="userSpaceOnUse" gradientTransform="matrix(372.636,0,0,326.352,658.045,654.292)"><stop offset="0" style="stop-color:rgb(255,173,1);stop-opacity:1"></stop><stop offset="1" style="stop-color:rgb(254,202,0);stop-opacity:1"></stop></linearGradient>
        <linearGradient id="_Linear7" x1="0" y1="0" x2="1" y2="0" gradientUnits="userSpaceOnUse" gradientTransform="matrix(372.636,0,0,326.352,658.045,654.292)"><stop offset="0" style="stop-color:rgb(255,173,1);stop-opacity:1"></stop><stop offset="1" style="stop-color:rgb(254,202,0);stop-opacity:1"></stop></linearGradient>
        <linearGradient id="_Linear8" x1="0" y1="0" x2="1" y2="0" gradientUnits="userSpaceOnUse" gradientTransform="matrix(372.636,0,0,326.352,658.045,654.292)"><stop offset="0" style="stop-color:rgb(255,173,1);stop-opacity:1"></stop><stop offset="1" style="stop-color:rgb(254,202,0);stop-opacity:1"></stop></linearGradient>
    </defs>
</svg>